<?xml version="1.0" encoding="UTF-8" standalone="no"?>
<!DOCTYPE svg PUBLIC "-//W3C//DTD SVG 1.1//EN"
 "http://www.w3.org/Graphics/SVG/1.1/DTD/svg11.dtd">
<!-- Generated by graphviz version 7.0.6 (20230106.0513)
 -->
<!-- Title: G Pages: 1 -->
<svg width="682pt" height="372pt"
 viewBox="0.00 0.00 682.20 372.20" xmlns="http://www.w3.org/2000/svg" xmlns:xlink="http://www.w3.org/1999/xlink">
<g id="graph0" class="graph" transform="scale(1 1) rotate(0) translate(21.6 350.6)">
<title>G</title>
<polygon fill="#111111" stroke="none" points="-21.6,21.6 -21.6,-350.6 660.6,-350.6 660.6,21.6 -21.6,21.6"/>
<!-- application/getDTO.ts -->
<g id="node1" class="node">
<title>application/getDTO.ts</title>
<path fill="none" stroke="#cfffac" d="M200.33,-23C200.33,-23 68.67,-23 68.67,-23 64.83,-23 61,-19.17 61,-15.33 61,-15.33 61,-7.67 61,-7.67 61,-3.83 64.83,0 68.67,0 68.67,0 200.33,0 200.33,0 204.17,0 208,-3.83 208,-7.67 208,-7.67 208,-15.33 208,-15.33 208,-19.17 204.17,-23 200.33,-23"/>
<text text-anchor="middle" x="134.5" y="-7.8" font-family="Arial" font-size="14.00" fill="#cfffac">application/getDTO.ts</text>
</g>
<!-- application/getStarWarsName.ts -->
<g id="node2" class="node">
<title>application/getStarWarsName.ts</title>
<path fill="none" stroke="#cfffac" d="M232.33,-64C232.33,-64 36.67,-64 36.67,-64 32.83,-64 29,-60.17 29,-56.33 29,-56.33 29,-48.67 29,-48.67 29,-44.83 32.83,-41 36.67,-41 36.67,-41 232.33,-41 232.33,-41 236.17,-41 240,-44.83 240,-48.67 240,-48.67 240,-56.33 240,-56.33 240,-60.17 236.17,-64 232.33,-64"/>
<text text-anchor="middle" x="134.5" y="-48.8" font-family="Arial" font-size="14.00" fill="#cfffac">application/getStarWarsName.ts</text>
</g>
<!-- domain/valueObject/Greeting.ts -->
<g id="node3" class="node">
<title>domain/valueObject/Greeting.ts</title>
<path fill="none" stroke="#cfffac" d="M230.83,-105C230.83,-105 38.17,-105 38.17,-105 34.33,-105 30.5,-101.17 30.5,-97.33 30.5,-97.33 30.5,-89.67 30.5,-89.67 30.5,-85.83 34.33,-82 38.17,-82 38.17,-82 230.83,-82 230.83,-82 234.67,-82 238.5,-85.83 238.5,-89.67 238.5,-89.67 238.5,-97.33 238.5,-97.33 238.5,-101.17 234.67,-105 230.83,-105"/>
<text text-anchor="middle" x="134.5" y="-89.8" font-family="Arial" font-size="14.00" fill="#cfffac">domain/valueObject/Greeting.ts</text>
</g>
<!-- frameworks/validate.ts -->
<g id="node4" class="node">
<title>frameworks/validate.ts</title>
<path fill="none" stroke="#cfffac" d="M202.83,-146C202.83,-146 66.17,-146 66.17,-146 62.33,-146 58.5,-142.17 58.5,-138.33 58.5,-138.33 58.5,-130.67 58.5,-130.67 58.5,-126.83 62.33,-123 66.17,-123 66.17,-123 202.83,-123 202.83,-123 206.67,-123 210.5,-126.83 210.5,-130.67 210.5,-130.67 210.5,-138.33 210.5,-138.33 210.5,-142.17 206.67,-146 202.83,-146"/>
<text text-anchor="middle" x="134.5" y="-130.8" font-family="Arial" font-size="14.00" fill="#cfffac">frameworks/validate.ts</text>
</g>
<!-- infrastructure/emitter/Emitter.start.ts -->
<g id="node5" class="node">
<title>infrastructure/emitter/Emitter.start.ts</title>
<path fill="none" stroke="#cfffac" d="M242.83,-187C242.83,-187 26.17,-187 26.17,-187 22.33,-187 18.5,-183.17 18.5,-179.33 18.5,-179.33 18.5,-171.67 18.5,-171.67 18.5,-167.83 22.33,-164 26.17,-164 26.17,-164 242.83,-164 242.83,-164 246.67,-164 250.5,-167.83 250.5,-171.67 250.5,-171.67 250.5,-179.33 250.5,-179.33 250.5,-183.17 246.67,-187 242.83,-187"/>
<text text-anchor="middle" x="134.5" y="-171.8" font-family="Arial" font-size="14.00" fill="#cfffac">infrastructure/emitter/Emitter.start.ts</text>
</g>
<!-- infrastructure/emitter/Emitter.ts -->
<g id="node6" class="node">
<title>infrastructure/emitter/Emitter.ts</title>
<path fill="none" stroke="#c6c5fe" d="M227.83,-288C227.83,-288 41.17,-288 41.17,-288 37.33,-288 33.5,-284.17 33.5,-280.33 33.5,-280.33 33.5,-272.67 33.5,-272.67 33.5,-268.83 37.33,-265 41.17,-265 41.17,-265 227.83,-265 227.83,-265 231.67,-265 235.5,-268.83 235.5,-272.67 235.5,-272.67 235.5,-280.33 235.5,-280.33 235.5,-284.17 231.67,-288 227.83,-288"/>
<text text-anchor="middle" x="134.5" y="-272.8" font-family="Arial" font-size="14.00" fill="#c6c5fe">infrastructure/emitter/Emitter.ts</text>
</g>
<!-- interfaces/Event.ts -->
<g id="node7" class="node">
<title>interfaces/Event.ts</title>
<path fill="none" stroke="#cfffac" d="M631.33,-258C631.33,-258 518.67,-258 518.67,-258 514.83,-258 511,-254.17 511,-250.33 511,-250.33 511,-242.67 511,-242.67 511,-238.83 514.83,-235 518.67,-235 518.67,-235 631.33,-235 631.33,-235 635.17,-235 639,-238.83 639,-242.67 639,-242.67 639,-250.33 639,-250.33 639,-254.17 635.17,-258 631.33,-258"/>
<text text-anchor="middle" x="575" y="-242.8" font-family="Arial" font-size="14.00" fill="#cfffac">interfaces/Event.ts</text>
</g>
<!-- infrastructure/emitter/Emitter.ts&#45;&gt;interfaces/Event.ts -->
<g id="edge1" class="edge">
<title>infrastructure/emitter/Emitter.ts&#45;&gt;interfaces/Event.ts</title>
<path fill="none" stroke="#757575" d="M235.75,-278.63C303.53,-278.89 394.93,-276.97 475,-267.5 488.02,-265.96 501.87,-263.53 514.95,-260.87"/>
<polygon fill="#757575" stroke="#757575" points="515.67,-264.29 524.72,-258.79 514.22,-257.44 515.67,-264.29"/>
</g>
<!-- interfaces/EventEmitter.ts -->
<g id="node8" class="node">
<title>interfaces/EventEmitter.ts</title>
<path fill="none" stroke="#c6c5fe" d="M467.33,-258C467.33,-258 312.67,-258 312.67,-258 308.83,-258 305,-254.17 305,-250.33 305,-250.33 305,-242.67 305,-242.67 305,-238.83 308.83,-235 312.67,-235 312.67,-235 467.33,-235 467.33,-235 471.17,-235 475,-238.83 475,-242.67 475,-242.67 475,-250.33 475,-250.33 475,-254.17 471.17,-258 467.33,-258"/>
<text text-anchor="middle" x="390" y="-242.8" font-family="Arial" font-size="14.00" fill="#c6c5fe">interfaces/EventEmitter.ts</text>
</g>
<!-- infrastructure/emitter/Emitter.ts&#45;&gt;interfaces/EventEmitter.ts -->
<g id="edge2" class="edge">
<title>infrastructure/emitter/Emitter.ts&#45;&gt;interfaces/EventEmitter.ts</title>
<path fill="none" stroke="#757575" d="M235.69,-264.64C254.69,-262.39 274.52,-260.05 293.38,-257.82"/>
<polygon fill="#757575" stroke="#757575" points="293.64,-261.31 303.16,-256.66 292.81,-254.36 293.64,-261.31"/>
</g>
<!-- interfaces/EventEmitter.ts&#45;&gt;interfaces/Event.ts -->
<g id="edge5" class="edge">
<title>interfaces/EventEmitter.ts&#45;&gt;interfaces/Event.ts</title>
<path fill="none" stroke="#757575" d="M475.27,-246.5C483.27,-246.5 491.35,-246.5 499.26,-246.5"/>
<polygon fill="#757575" stroke="#757575" points="499.17,-250 509.17,-246.5 499.17,-243 499.17,-250"/>
</g>
<!-- infrastructure/emitter/LocalEventEmitter.ts -->
<g id="node9" class="node">
<title>infrastructure/emitter/LocalEventEmitter.ts</title>
<path fill="none" stroke="#c6c5fe" d="M261.33,-228C261.33,-228 7.67,-228 7.67,-228 3.83,-228 0,-224.17 0,-220.33 0,-220.33 0,-212.67 0,-212.67 0,-208.83 3.83,-205 7.67,-205 7.67,-205 261.33,-205 261.33,-205 265.17,-205 269,-208.83 269,-212.67 269,-212.67 269,-220.33 269,-220.33 269,-224.17 265.17,-228 261.33,-228"/>
<text text-anchor="middle" x="134.5" y="-212.8" font-family="Arial" font-size="14.00" fill="#c6c5fe">infrastructure/emitter/LocalEventEmitter.ts</text>
</g>
<!-- infrastructure/emitter/LocalEventEmitter.ts&#45;&gt;interfaces/Event.ts -->
<g id="edge3" class="edge">
<title>infrastructure/emitter/LocalEventEmitter.ts&#45;&gt;interfaces/Event.ts</title>
<path fill="none" stroke="#757575" d="M269.33,-214.43C331.99,-214.9 407.52,-217.52 475,-225.5 488.02,-227.04 501.87,-229.47 514.95,-232.13"/>
<polygon fill="#757575" stroke="#757575" points="514.22,-235.56 524.72,-234.21 515.67,-228.71 514.22,-235.56"/>
</g>
<!-- infrastructure/emitter/LocalEventEmitter.ts&#45;&gt;interfaces/EventEmitter.ts -->
<g id="edge4" class="edge">
<title>infrastructure/emitter/LocalEventEmitter.ts&#45;&gt;interfaces/EventEmitter.ts</title>
<path fill="none" stroke="#757575" d="M236.78,-228.49C255.4,-230.69 274.78,-232.98 293.23,-235.17"/>
<polygon fill="#757575" stroke="#757575" points="292.73,-238.63 303.07,-236.33 293.55,-231.68 292.73,-238.63"/>
</g>
<!-- usecases/greet.ts -->
<g id="node10" class="node">
<title>usecases/greet.ts</title>
<path fill="none" stroke="#cfffac" d="M187.83,-329C187.83,-329 81.17,-329 81.17,-329 77.33,-329 73.5,-325.17 73.5,-321.33 73.5,-321.33 73.5,-313.67 73.5,-313.67 73.5,-309.83 77.33,-306 81.17,-306 81.17,-306 187.83,-306 187.83,-306 191.67,-306 195.5,-309.83 195.5,-313.67 195.5,-313.67 195.5,-321.33 195.5,-321.33 195.5,-325.17 191.67,-329 187.83,-329"/>
<text text-anchor="middle" x="134.5" y="-313.8" font-family="Arial" font-size="14.00" fill="#cfffac">usecases/greet.ts</text>
</g>
</g>
</svg>
