<?xml version="1.0" encoding="UTF-8" standalone="no"?>
<!DOCTYPE svg PUBLIC "-//W3C//DTD SVG 1.1//EN"
 "http://www.w3.org/Graphics/SVG/1.1/DTD/svg11.dtd">
<!-- Generated by graphviz version 12.0.0 (20240704.0754)
 -->
<!-- Title: G Pages: 1 -->
<svg width="118pt" height="67pt"
 viewBox="0.00 0.00 117.70 66.95" xmlns="http://www.w3.org/2000/svg" xmlns:xlink="http://www.w3.org/1999/xlink">
<g id="graph0" class="graph" transform="scale(1 1) rotate(0) translate(21.6 45.35)">
<title>G</title>
<polygon fill="#111111" stroke="none" points="-21.6,21.6 -21.6,-45.35 96.1,-45.35 96.1,21.6 -21.6,21.6"/>
<!-- handler.ts -->
<g id="node1" class="node">
<title>handler.ts</title>
<path fill="none" stroke="#cfffac" d="M66.58,-23.75C66.58,-23.75 7.92,-23.75 7.92,-23.75 3.96,-23.75 0,-19.79 0,-15.83 0,-15.83 0,-7.92 0,-7.92 0,-3.96 3.96,0 7.92,0 7.92,0 66.58,0 66.58,0 70.54,0 74.5,-3.96 74.5,-7.92 74.5,-7.92 74.5,-15.83 74.5,-15.83 74.5,-19.79 70.54,-23.75 66.58,-23.75"/>
<text text-anchor="middle" x="37.25" y="-6.45" font-family="Arial" font-size="14.00" fill="#cfffac">handler.ts</text>
</g>
</g>
</svg>
